<?xml version="1.0" encoding="UTF-8" standalone="no"?>
<svg width="40px" height="9px" viewBox="0 0 40 9" version="1.1" xmlns="http://www.w3.org/2000/svg" xmlns:xlink="http://www.w3.org/1999/xlink">
    <!-- Generator: Sketch 3.8.3 (29802) - http://www.bohemiancoding.com/sketch -->
    <title>browser-controls</title>
    <desc>Created with Sketch.</desc>
    <defs></defs>
    <g id="Symbols" stroke="none" stroke-width="1" fill="none" fill-rule="evenodd" fill-opacity="0.2">
        <g id="Browser-header" transform="translate(-14.000000, -10.000000)" fill="#40545C">
            <g id="browser-controls" transform="translate(14.000000, 10.000000)">
                <path d="M4.45206547,8.72727273 C6.86203529,8.72727273 8.81570184,6.77360618 8.81570184,4.36363636 C8.81570184,1.95366655 6.86203529,0 4.45206547,0 C2.04209565,0 0.0884291079,1.95366655 0.0884291079,4.36363636 C0.0884291079,6.77360618 2.04209565,8.72727273 4.45206547,8.72727273 Z" id="object"></path>
                <path d="M19.7247927,8.72727273 C22.1347626,8.72727273 24.0884291,6.77360618 24.0884291,4.36363636 C24.0884291,1.95366655 22.1347626,0 19.7247927,0 C17.3148229,0 15.3611564,1.95366655 15.3611564,4.36363636 C15.3611564,6.77360618 17.3148229,8.72727273 19.7247927,8.72727273 Z" id="object"></path>
                <path d="M34.99752,8.72727273 C37.4074898,8.72727273 39.3611564,6.77360618 39.3611564,4.36363636 C39.3611564,1.95366655 37.4074898,0 34.99752,0 C32.5875502,0 30.6338837,1.95366655 30.6338837,4.36363636 C30.6338837,6.77360618 32.5875502,8.72727273 34.99752,8.72727273 Z" id="object"></path>
            </g>
        </g>
    </g>
</svg>